<?xml version="1.0" encoding="UTF-8"?>
<svg width="16px" height="16px" viewBox="0 0 16 16" version="1.1" xmlns="http://www.w3.org/2000/svg" xmlns:xlink="http://www.w3.org/1999/xlink">
    <!-- Generator: Sketch 64 (93537) - https://sketch.com -->
    <title>105830DC-64DD-49ED-AFE5-C7F80362B821</title>
    <desc>Created with Sketch.</desc>
    <g id="页面-1" stroke="none" stroke-width="1" fill="none" fill-rule="evenodd">
        <g id="课程详情-目录-录播课" transform="translate(-980.000000, -426.000000)" fill="#9CA4AD">
            <g id="展开-向下" transform="translate(980.500000, 426.500000)">
                <path d="M5.77339737,7.00005865 L10.8161762,2.05057652 C11.0612746,1.80921304 11.0612746,1.42132053 10.8161762,1.1799131 C10.5746817,0.942211747 10.1805549,0.939750798 9.93592388,1.17430272 C9.93403897,1.17613379 9.93210882,1.17802344 9.93026915,1.1799131 L4.88667607,6.13001047 L4,7 L4.88667607,7.87072207 L9.93026915,12.8194718 C10.0469676,12.9349313 10.2065967,13 10.3732227,13 C10.5398033,13 10.6994325,12.9349313 10.8161762,12.8194718 C11.0608675,12.5782255 11.0608675,12.1907724 10.8161762,11.9494822 L5.77339737,7.00005865 Z" transform="translate(7.500000, 7.000000) scale(-1, 1) rotate(-90.000000) translate(-7.500000, -7.000000) "></path>
            </g>
        </g>
    </g>
</svg>