<?xml version="1.0" encoding="UTF-8"?>
<svg width="14px" height="14px" viewBox="0 0 14 14" version="1.1" xmlns="http://www.w3.org/2000/svg" xmlns:xlink="http://www.w3.org/1999/xlink">
    <!-- Generator: Sketch 64 (93537) - https://sketch.com -->
    <title>C638D2F1-A286-4278-9DCA-D0D729DA2CDE</title>
    <desc>Created with Sketch.</desc>
    <g id="页面-1" stroke="none" stroke-width="1" fill="none" fill-rule="evenodd">
        <g id="首页-左滑科目" transform="translate(-179.000000, -35.000000)" fill="#fff">
            <g id="页头" transform="translate(110.000000, 26.000000)">
                <path d="M82.0392154,23 L78.7450978,19.4607176 C77.7577586,20.2308498 76.2061999,20.9872386 74.8685107,20.9872386 C71.627447,20.9872386 69,18.3037829 69,14.9936793 C69,11.6835757 71.627447,9 74.8685107,9 C78.1093371,9 80.7367841,11.6833356 80.7367841,14.9935592 C80.7367841,16.2988457 80.3237911,17.5032729 79.6299724,18.4872506 L83,21.9185054 L82.0392154,23 Z M74.8685264,10.2530519 C72.3047422,10.2530519 70.2264134,12.3753335 70.2264134,14.9935539 C70.2264134,17.6117744 72.3046183,19.7343068 74.8685264,19.7343068 C77.4316912,19.7343068 79.5098961,17.6117744 79.5098961,14.9935539 C79.5098961,12.3753335 77.4316912,10.2530519 74.8685264,10.2530519 L74.8685264,10.2530519 Z" id="搜索图标"></path>
            </g>
        </g>
    </g>
</svg>