<?xml version="1.0" encoding="UTF-8"?>
<svg width="28px" height="28px" viewBox="0 0 28 28" version="1.1" xmlns="http://www.w3.org/2000/svg" xmlns:xlink="http://www.w3.org/1999/xlink">
    <!-- Generator: Sketch 64 (93537) - https://sketch.com -->
    <title>3C7D4769-0E79-4E98-86B3-0AB3DE098B9B</title>
    <desc>Created with Sketch.</desc>
    <g id="页面-1" stroke="none" stroke-width="1" fill="none" fill-rule="evenodd">
        <g id="首页" transform="translate(-26.000000, -2450.000000)" stroke="#666" stroke-width="1.5">
            <g id="侧边栏">
                <g id="学习灰备份-6" transform="translate(26.000000, 2450.000000)">
                    <g id="消息" transform="translate(3.000000, 3.000000)">
                        <path d="M11.0013785,1 C11.6216879,1 12.1262062,1.49193548 12.1262062,2.09677419 L12.1262062,2.64516129 C12.1262062,3.14516129 12.4763363,3.58333333 12.9725839,3.70698925 C15.6523204,4.37365591 17.1879308,6.3844086 17.1879308,9.22580645 L17.1879308,14.1612903 C17.1879308,14.188172 17.1879308,14.2177419 17.1906877,14.2446237 C17.2954511,15.5672043 18.0287946,16.9032258 19.4375862,16.9032258 C19.5313218,16.9032258 20,16.9301075 20,17.4516129 C20,17.9543011 19.4431,18 19.4375862,18 L2.58722622,18 C2.4411089,17.9784946 2,17.7311828 2,17.4516129 C2,17.1236559 2.44386583,16.9086022 2.56241385,16.9032258 C3.96844846,16.9032258 4.70454894,15.5698925 4.8093123,14.2473118 C4.81206923,14.2177419 4.81206923,14.1908602 4.81206923,14.1612903 L4.81206923,9.22580645 C4.81206923,6.75806452 6.60683106,4.43010753 9.07979783,3.69354839 C9.55398989,3.55376344 9.87655077,3.12634409 9.87655077,2.64516129 L9.87655077,2.09677419 C9.87655077,1.49193548 10.3810691,1 11.0013785,1 Z" id="形状" fill-rule="nonzero"></path>
                        <path d="M8,18 C8,19.6568542 9.34314575,21 11,21 C12.6568542,21 14,19.6568542 14,18" id="路径"></path>
                        <line x1="5.27160557" y1="14.6737935" x2="17" y2="14.6737935" id="路径-11"></line>
                    </g>
                </g>
            </g>
        </g>
    </g>
</svg>