<?xml version="1.0" encoding="UTF-8"?>
<svg width="22px" height="22px" viewBox="0 0 22 22" version="1.1" xmlns="http://www.w3.org/2000/svg" xmlns:xlink="http://www.w3.org/1999/xlink">
    <!-- Generator: Sketch 64 (93537) - https://sketch.com -->
    <title>8FF502FD-6915-49BE-B60F-A687E3FA71F4</title>
    <desc>Created with Sketch.</desc>
    <g id="页面-1" stroke="none" stroke-width="1" fill="none" fill-rule="evenodd">
        <g id="首页-课程详情" transform="translate(-173.000000, -2512.000000)" stroke="#666" stroke-width="1.3">
            <g id="底部栏" transform="translate(80.000000, 2502.000000)">
                <g id="购物车-底部栏" transform="translate(93.000000, 10.000000)">
                    <g id="购物车">
                        <circle id="椭圆形" cx="8.75" cy="18.0833333" r="1.75"></circle>
                        <circle id="椭圆形备份" cx="15.75" cy="18.0833333" r="1.75"></circle>
                        <path d="M1.16666667,2.33333333 L3.86449506,2.33333333 C4.33319371,2.33333333 4.73900711,2.65886532 4.84068212,3.11640288 L6.82598455,12.0502638 C6.92765956,12.5078013 7.33347296,12.8333333 7.80217161,12.8333333 L17.7838844,12.8333333 C18.2882077,12.8333333 18.7136087,12.4577969 18.7761623,11.9573681 L19.692829,4.62403473 C19.7613315,4.0760148 19.3726058,3.57622462 18.8245858,3.50772212 C18.783441,3.50257902 18.7420161,3.5 18.7005511,3.5 L5.83333333,3.5 L5.83333333,3.5" id="路径-4" stroke-linecap="round"></path>
                        <path d="M7,12.8333333 L4.35355339,15.4797799 C4.15829124,15.6750421 4.15829124,15.9916246 4.35355339,16.1868867 C4.44732158,16.2806549 4.57449854,16.3333333 4.70710678,16.3333333 L19.8333333,16.3333333 L19.8333333,16.3333333" id="路径-5" stroke-linecap="round"></path>
                    </g>
                </g>
            </g>
        </g>
    </g>
</svg>